<svg width="1200" height="600" viewBox="0 0 1200 600" fill="none" xmlns="http://www.w3.org/2000/svg">
<path d="M0 0H1200V600H0V0Z" fill="#9D4EDD"/>
<path d="M350.686 290.63V190.605H382.866C388.96 190.605 393.927 191.758 397.767 194.063C401.607 196.286 404.445 199.538 406.282 203.818C408.201 208.099 409.161 213.286 409.161 219.378C409.161 226.54 407.909 232.138 405.405 236.172C402.984 240.206 399.645 243.087 395.388 244.816C391.13 246.462 386.247 247.286 380.738 247.286H371.346V290.63H350.686ZM371.346 232.961H378.609C381.614 232.961 383.91 232.508 385.496 231.603C387.165 230.615 388.292 229.092 388.877 227.034C389.461 224.976 389.753 222.341 389.753 219.131C389.753 216.085 389.503 213.533 389.002 211.475C388.584 209.416 387.583 207.811 385.997 206.659C384.411 205.506 381.906 204.93 378.484 204.93H371.346V232.961Z" fill="#10002B"/>
<path d="M419.774 290.63V190.605H440.435V276.799H464.226V290.63H419.774Z" fill="#10002B"/>
<path d="M468.936 290.63L488.595 190.605H511.51L531.043 290.63H511.885L508.254 268.649H492.226L488.345 290.63H468.936ZM494.105 256.177H506.25L500.115 215.797L494.105 256.177Z" fill="#10002B"/>
<path d="M549.948 290.63V250.99L530.164 190.605H549.572L560.466 225.799L570.608 190.605H589.391L569.857 250.99V290.63H549.948Z" fill="#10002B"/>
<path d="M622.39 292.111C615.545 292.111 610.119 290.712 606.112 287.913C602.105 285.031 599.225 280.998 597.472 275.811C595.802 270.542 594.968 264.45 594.968 257.535V224.07C594.968 216.908 595.844 210.734 597.597 205.547C599.35 200.361 602.397 196.368 606.738 193.569C611.162 190.77 617.131 189.37 624.644 189.37C631.906 189.37 637.624 190.564 641.798 192.952C646.056 195.339 649.102 198.714 650.939 203.077C652.775 207.441 653.694 212.627 653.694 218.637V224.441H633.534V217.402C633.534 214.768 633.367 212.462 633.033 210.487C632.699 208.429 631.906 206.823 630.654 205.671C629.485 204.518 627.565 203.942 624.894 203.942C622.139 203.942 620.136 204.642 618.884 206.041C617.632 207.441 616.839 209.252 616.505 211.475C616.171 213.615 616.004 215.92 616.004 218.39V262.722C616.004 265.521 616.254 268.031 616.755 270.254C617.256 272.477 618.174 274.206 619.51 275.441C620.929 276.676 622.932 277.293 625.52 277.293C628.108 277.293 630.111 276.634 631.531 275.317C632.95 274 633.91 272.23 634.41 270.007C634.995 267.702 635.287 265.109 635.287 262.228V251.608H625.395V239.259H653.944V290.63H640.421L639.169 281.615C637.833 284.661 635.83 287.172 633.158 289.148C630.487 291.123 626.898 292.111 622.39 292.111Z" fill="#10002B"/>
<path d="M668.127 290.63V190.605H694.422C701.267 190.605 707.11 191.387 711.952 192.952C716.877 194.433 720.634 197.109 723.221 200.978C725.893 204.847 727.228 210.199 727.228 217.031C727.228 221.148 726.853 224.811 726.101 228.022C725.434 231.15 724.181 233.908 722.345 236.295C720.592 238.6 718.088 240.453 714.832 241.852L728.856 290.63H707.695L696.05 245.31H688.787V290.63H668.127ZM688.787 233.208H694.798C698.137 233.208 700.766 232.673 702.686 231.603C704.606 230.533 705.942 228.927 706.693 226.787C707.528 224.564 707.945 221.847 707.945 218.637C707.945 214.027 707.069 210.528 705.316 208.14C703.646 205.671 700.474 204.436 695.799 204.436H688.787V233.208Z" fill="#10002B"/>
<path d="M768.693 291.988C761.264 291.988 755.379 290.671 751.038 288.036C746.697 285.402 743.567 281.656 741.647 276.799C739.81 271.86 738.892 265.973 738.892 259.14V221.847C738.892 215.015 739.81 209.169 741.647 204.312C743.567 199.455 746.697 195.751 751.038 193.199C755.379 190.646 761.264 189.37 768.693 189.37C776.206 189.37 782.133 190.688 786.474 193.322C790.898 195.874 794.029 199.579 795.865 204.436C797.785 209.211 798.745 215.015 798.745 221.847V259.14C798.745 265.973 797.785 271.86 795.865 276.799C794.029 281.656 790.898 285.402 786.474 288.036C782.133 290.671 776.206 291.988 768.693 291.988ZM768.693 277.293C771.365 277.293 773.326 276.717 774.578 275.564C775.831 274.329 776.665 272.724 777.083 270.748C777.5 268.69 777.709 266.508 777.709 264.203V216.908C777.709 214.603 777.5 212.462 777.083 210.487C776.665 208.511 775.831 206.947 774.578 205.794C773.326 204.559 771.365 203.942 768.693 203.942C766.189 203.942 764.311 204.559 763.059 205.794C761.806 206.947 760.972 208.511 760.554 210.487C760.137 212.462 759.928 214.603 759.928 216.908V264.203C759.928 266.508 760.095 268.69 760.429 270.748C760.846 272.724 761.681 274.329 762.933 275.564C764.186 276.717 766.106 277.293 768.693 277.293Z" fill="#10002B"/>
<path d="M841.089 291.988C833.41 291.988 827.441 290.712 823.184 288.16C818.926 285.525 815.921 281.78 814.168 276.923C812.498 271.983 811.664 266.015 811.664 259.017V190.605H832.074V261.857C832.074 264.327 832.241 266.755 832.575 269.143C832.992 271.53 833.827 273.465 835.079 274.947C836.415 276.429 838.418 277.169 841.089 277.169C843.844 277.169 845.848 276.429 847.1 274.947C848.435 273.465 849.27 271.53 849.604 269.143C849.938 266.755 850.105 264.327 850.105 261.857V190.605H870.515V259.017C870.515 266.015 869.639 271.983 867.886 276.923C866.216 281.78 863.253 285.525 858.995 288.16C854.738 290.712 848.769 291.988 841.089 291.988Z" fill="#10002B"/>
<path d="M884.93 290.63V190.605H899.33L921.869 242.717V190.605H938.898V290.63H925.125L902.586 235.308V290.63H884.93Z" fill="#10002B"/>
<path d="M954.264 290.63V190.605H979.056C987.654 190.605 994.333 191.717 999.091 193.939C1003.93 196.08 1007.36 199.496 1009.36 204.189C1011.36 208.799 1012.36 214.726 1012.36 221.971V258.4C1012.36 265.809 1011.36 271.901 1009.36 276.676C1007.36 281.45 1003.97 284.99 999.216 287.295C994.541 289.518 987.988 290.63 979.557 290.63H954.264ZM974.924 276.429H979.307C983.147 276.429 985.86 275.852 987.446 274.7C989.115 273.465 990.159 271.695 990.576 269.39C990.994 267.002 991.202 264.08 991.202 260.622V219.378C991.202 215.92 990.91 213.162 990.326 211.104C989.825 208.964 988.74 207.4 987.07 206.412C985.484 205.424 982.855 204.93 979.182 204.93H974.924V276.429Z" fill="#10002B"/>
<path d="M331.027 240C331.027 280.238 297.951 312.857 257.15 312.857C216.349 312.857 183.273 280.238 183.273 240C183.273 199.762 216.349 167.143 257.15 167.143C297.951 167.143 331.027 199.762 331.027 240Z" fill="#10002B"/>
<path d="M310.029 232.64C314.291 234.999 314.291 241.05 310.029 243.409L235.171 284.838C230.997 287.147 225.846 284.173 225.846 279.453V196.595C225.846 191.876 230.997 188.901 235.171 191.211L310.029 232.64Z" fill="#9D4EDD"/>
<path d="M78.8771 420V373.247H96.7283C100.385 373.247 103.454 373.871 105.933 375.119C108.428 376.367 110.31 378.117 111.581 380.369C112.867 382.607 113.51 385.217 113.51 388.2C113.51 391.198 112.86 393.8 111.558 396.007C110.272 398.199 108.373 399.895 105.863 401.098C103.353 402.285 100.269 402.878 96.6121 402.878H83.8977V395.847H95.4499C97.5883 395.847 99.3394 395.558 100.703 394.98C102.067 394.386 103.074 393.526 103.725 392.4C104.391 391.259 104.724 389.858 104.724 388.2C104.724 386.541 104.391 385.125 103.725 383.953C103.058 382.766 102.043 381.868 100.68 381.26C99.3161 380.636 97.5573 380.324 95.4034 380.324H87.5005V420H78.8771ZM103.469 398.815L115.254 420H105.631L94.0553 398.815H103.469Z" fill="white"/>
<path d="M136.371 420.685C132.791 420.685 129.7 419.954 127.096 418.493C124.509 417.017 122.517 414.932 121.123 412.238C119.728 409.529 119.031 406.341 119.031 402.673C119.031 399.066 119.728 395.9 121.123 393.176C122.533 390.437 124.501 388.306 127.027 386.784C129.552 385.247 132.52 384.478 135.929 384.478C138.129 384.478 140.206 384.829 142.158 385.529C144.126 386.213 145.862 387.279 147.365 388.725C148.884 390.17 150.077 392.012 150.944 394.249C151.812 396.471 152.246 399.119 152.246 402.194V404.728H122.982V399.157H144.181C144.165 397.575 143.816 396.167 143.135 394.934C142.453 393.686 141.5 392.704 140.276 391.989C139.067 391.274 137.657 390.916 136.045 390.916C134.325 390.916 132.814 391.327 131.513 392.149C130.211 392.956 129.196 394.021 128.468 395.345C127.755 396.654 127.391 398.092 127.375 399.66V404.522C127.375 406.561 127.755 408.312 128.514 409.773C129.274 411.219 130.335 412.33 131.699 413.106C133.062 413.867 134.658 414.247 136.487 414.247C137.711 414.247 138.819 414.08 139.811 413.745C140.802 413.395 141.662 412.885 142.391 412.215C143.119 411.546 143.669 410.716 144.041 409.727L151.897 410.595C151.402 412.634 150.456 414.415 149.062 415.936C147.683 417.443 145.916 418.615 143.762 419.452C141.608 420.274 139.144 420.685 136.371 420.685Z" fill="white"/>
<path d="M169.638 420.708C167.376 420.708 165.338 420.312 163.525 419.521C161.728 418.714 160.302 417.527 159.248 415.959C158.21 414.392 157.691 412.459 157.691 410.161C157.691 408.182 158.063 406.546 158.807 405.253C159.55 403.959 160.565 402.924 161.852 402.148C163.138 401.372 164.587 400.786 166.198 400.39C167.825 399.979 169.507 399.682 171.242 399.5C173.334 399.287 175.031 399.096 176.333 398.929C177.634 398.746 178.579 398.473 179.168 398.107C179.773 397.727 180.075 397.141 180.075 396.349V396.212C180.075 394.493 179.556 393.161 178.517 392.217C177.479 391.274 175.984 390.802 174.031 390.802C171.97 390.802 170.336 391.243 169.127 392.126C167.934 393.009 167.128 394.051 166.71 395.254L158.853 394.158C159.473 392.027 160.496 390.247 161.921 388.816C163.347 387.37 165.09 386.29 167.151 385.574C169.212 384.844 171.49 384.478 173.985 384.478C175.705 384.478 177.417 384.676 179.122 385.072C180.826 385.468 182.384 386.122 183.794 387.035C185.204 387.933 186.335 389.158 187.187 390.711C188.055 392.263 188.489 394.204 188.489 396.532V420H180.4V415.183H180.121C179.61 416.157 178.889 417.07 177.96 417.923C177.045 418.76 175.891 419.437 174.496 419.954C173.117 420.457 171.498 420.708 169.638 420.708ZM171.823 414.635C173.512 414.635 174.977 414.308 176.216 413.654C177.456 412.984 178.409 412.101 179.075 411.005C179.757 409.91 180.098 408.715 180.098 407.421V403.289C179.835 403.502 179.385 403.7 178.75 403.883C178.13 404.066 177.433 404.225 176.658 404.362C175.883 404.499 175.116 404.621 174.357 404.728C173.597 404.834 172.939 404.925 172.381 405.002C171.126 405.169 170.002 405.443 169.011 405.823C168.019 406.204 167.236 406.736 166.663 407.421C166.09 408.091 165.803 408.959 165.803 410.024C165.803 411.546 166.369 412.695 167.5 413.471C168.631 414.247 170.072 414.635 171.823 414.635Z" fill="white"/>
<path d="M212.523 420.685C208.959 420.685 205.899 419.916 203.342 418.379C200.801 416.842 198.84 414.719 197.461 412.01C196.098 409.286 195.416 406.151 195.416 402.604C195.416 399.043 196.113 395.9 197.508 393.176C198.902 390.437 200.87 388.306 203.412 386.784C205.968 385.247 208.99 384.478 212.477 384.478C215.374 384.478 217.939 385.004 220.17 386.054C222.417 387.089 224.207 388.557 225.54 390.46C226.872 392.347 227.632 394.554 227.818 397.08H219.775C219.45 395.391 218.675 393.983 217.451 392.857C216.242 391.715 214.623 391.144 212.593 391.144C210.873 391.144 209.362 391.601 208.06 392.514C206.759 393.412 205.744 394.706 205.015 396.395C204.303 398.084 203.946 400.109 203.946 402.468C203.946 404.857 204.303 406.911 205.015 408.631C205.728 410.336 206.728 411.652 208.014 412.581C209.315 413.494 210.842 413.95 212.593 413.95C213.833 413.95 214.94 413.722 215.917 413.265C216.908 412.794 217.737 412.116 218.404 411.234C219.07 410.351 219.527 409.278 219.775 408.015H227.818C227.616 410.496 226.872 412.695 225.586 414.612C224.3 416.515 222.549 418.006 220.333 419.087C218.117 420.152 215.514 420.685 212.523 420.685Z" fill="white"/>
<path d="M252.555 384.935V391.327H232.03V384.935H252.555ZM237.098 376.534H245.512V409.453C245.512 410.564 245.682 411.416 246.023 412.01C246.38 412.588 246.845 412.984 247.418 413.197C247.991 413.41 248.627 413.517 249.324 413.517C249.851 413.517 250.331 413.479 250.765 413.402C251.214 413.326 251.555 413.258 251.788 413.197L253.206 419.658C252.756 419.81 252.113 419.977 251.276 420.16C250.455 420.342 249.448 420.449 248.255 420.479C246.147 420.54 244.249 420.228 242.56 419.543C240.871 418.843 239.53 417.763 238.539 416.302C237.563 414.841 237.082 413.014 237.098 410.823V376.534Z" fill="white"/>
<path d="M278.745 373.247H287.298V406.12C287.283 409.133 286.632 411.728 285.346 413.905C284.06 416.066 282.262 417.732 279.953 418.904C277.66 420.061 274.987 420.639 271.934 420.639C269.145 420.639 266.635 420.152 264.403 419.178C262.187 418.189 260.429 416.728 259.127 414.795C257.825 412.862 257.174 410.458 257.174 407.581H265.751C265.767 408.844 266.046 409.933 266.588 410.846C267.146 411.759 267.913 412.459 268.889 412.946C269.866 413.433 270.989 413.676 272.26 413.676C273.639 413.676 274.809 413.395 275.77 412.832C276.73 412.253 277.459 411.401 277.954 410.275C278.466 409.149 278.729 407.764 278.745 406.12V373.247Z" fill="white"/>
<path d="M322.524 386.099C322.307 384.106 321.393 382.553 319.782 381.442C318.186 380.331 316.109 379.776 313.552 379.776C311.755 379.776 310.213 380.042 308.927 380.575C307.641 381.107 306.657 381.83 305.975 382.743C305.293 383.657 304.944 384.699 304.929 385.871C304.929 386.845 305.154 387.69 305.603 388.405C306.068 389.12 306.695 389.729 307.486 390.231C308.276 390.718 309.151 391.129 310.112 391.464C311.073 391.799 312.041 392.08 313.018 392.309L317.481 393.405C319.278 393.815 321.006 394.371 322.664 395.071C324.337 395.771 325.833 396.654 327.15 397.719C328.483 398.784 329.536 400.07 330.311 401.577C331.086 403.084 331.473 404.849 331.473 406.873C331.473 409.613 330.76 412.025 329.335 414.11C327.909 416.18 325.848 417.801 323.152 418.973C320.471 420.129 317.225 420.708 313.413 420.708C309.709 420.708 306.494 420.145 303.767 419.018C301.055 417.892 298.932 416.248 297.398 414.087C295.879 411.926 295.058 409.293 294.934 406.189H303.418C303.542 407.817 304.053 409.172 304.952 410.252C305.851 411.333 307.021 412.139 308.462 412.672C309.919 413.205 311.546 413.471 313.343 413.471C315.218 413.471 316.861 413.197 318.271 412.649C319.696 412.086 320.812 411.31 321.618 410.321C322.424 409.316 322.834 408.144 322.85 406.805C322.834 405.587 322.47 404.583 321.757 403.792C321.045 402.985 320.045 402.315 318.759 401.783C317.488 401.235 316.001 400.748 314.296 400.322L308.88 398.952C304.96 397.963 301.861 396.464 299.583 394.455C297.32 392.431 296.189 389.744 296.189 386.396C296.189 383.641 296.948 381.229 298.467 379.159C300.001 377.09 302.085 375.484 304.72 374.343C307.354 373.186 310.337 372.608 313.669 372.608C317.047 372.608 320.006 373.186 322.548 374.343C325.104 375.484 327.111 377.074 328.568 379.114C330.024 381.138 330.776 383.466 330.822 386.099H322.524Z" fill="white"/>
<path d="M370.598 420.685C367.034 420.685 363.974 419.916 361.417 418.379C358.876 416.842 356.916 414.719 355.536 412.01C354.173 409.286 353.491 406.151 353.491 402.604C353.491 399.043 354.188 395.9 355.583 393.176C356.978 390.437 358.946 388.306 361.487 386.784C364.044 385.247 367.065 384.478 370.552 384.478C373.45 384.478 376.014 385.004 378.246 386.054C380.493 387.089 382.282 388.557 383.615 390.46C384.948 392.347 385.707 394.554 385.893 397.08H377.85C377.525 395.391 376.75 393.983 375.526 392.857C374.317 391.715 372.698 391.144 370.668 391.144C368.948 391.144 367.437 391.601 366.136 392.514C364.834 393.412 363.819 394.706 363.091 396.395C362.378 398.084 362.021 400.109 362.021 402.468C362.021 404.857 362.378 406.911 363.091 408.631C363.803 410.336 364.803 411.652 366.089 412.581C367.391 413.494 368.917 413.95 370.668 413.95C371.908 413.95 373.016 413.722 373.992 413.265C374.984 412.794 375.813 412.116 376.479 411.234C377.145 410.351 377.603 409.278 377.85 408.015H385.893C385.691 410.496 384.948 412.695 383.661 414.612C382.375 416.515 380.624 418.006 378.408 419.087C376.192 420.152 373.589 420.685 370.598 420.685Z" fill="white"/>
<path d="M408.375 420.685C404.889 420.685 401.867 419.931 399.31 418.425C396.754 416.918 394.77 414.81 393.36 412.101C391.965 409.392 391.268 406.227 391.268 402.604C391.268 398.982 391.965 395.809 393.36 393.085C394.77 390.361 396.754 388.245 399.31 386.739C401.867 385.232 404.889 384.478 408.375 384.478C411.862 384.478 414.884 385.232 417.44 386.739C419.997 388.245 421.973 390.361 423.368 393.085C424.778 395.809 425.483 398.982 425.483 402.604C425.483 406.227 424.778 409.392 423.368 412.101C421.973 414.81 419.997 416.918 417.44 418.425C414.884 419.931 411.862 420.685 408.375 420.685ZM408.422 414.065C410.312 414.065 411.893 413.555 413.164 412.535C414.434 411.5 415.38 410.115 415.999 408.38C416.635 406.645 416.952 404.712 416.952 402.582C416.952 400.436 416.635 398.495 415.999 396.76C415.38 395.01 414.434 393.618 413.164 392.583C411.893 391.548 410.312 391.03 408.422 391.03C406.485 391.03 404.873 391.548 403.587 392.583C402.317 393.618 401.364 395.01 400.728 396.76C400.108 398.495 399.798 400.436 399.798 402.582C399.798 404.712 400.108 406.645 400.728 408.38C401.364 410.115 402.317 411.5 403.587 412.535C404.873 413.555 406.485 414.065 408.422 414.065Z" fill="white"/>
<path d="M432.625 420V384.935H440.667V390.893H441.085C441.829 388.884 443.061 387.317 444.781 386.191C446.501 385.049 448.554 384.478 450.941 384.478C453.358 384.478 455.396 385.057 457.054 386.213C458.727 387.355 459.905 388.915 460.587 390.893H460.959C461.749 388.945 463.082 387.393 464.957 386.236C466.847 385.064 469.086 384.478 471.674 384.478C474.959 384.478 477.64 385.498 479.716 387.538C481.793 389.577 482.831 392.552 482.831 396.464V420H474.394V397.742C474.394 395.566 473.805 393.975 472.627 392.971C471.449 391.951 470.008 391.441 468.304 391.441C466.274 391.441 464.685 392.065 463.539 393.313C462.408 394.546 461.842 396.152 461.842 398.13V420H453.59V397.4C453.59 395.588 453.033 394.143 451.917 393.062C450.817 391.982 449.376 391.441 447.594 391.441C446.385 391.441 445.285 391.746 444.293 392.354C443.301 392.948 442.511 393.793 441.922 394.888C441.333 395.969 441.039 397.232 441.039 398.678V420H432.625Z" fill="white"/>
<path d="M491.367 433.149V384.935H499.642V390.734H500.13C500.564 389.881 501.176 388.976 501.967 388.017C502.757 387.043 503.826 386.213 505.174 385.529C506.522 384.829 508.242 384.478 510.334 384.478C513.093 384.478 515.58 385.171 517.796 386.556C520.027 387.926 521.794 389.957 523.095 392.651C524.412 395.33 525.071 398.617 525.071 402.513C525.071 406.364 524.428 409.636 523.142 412.33C521.856 415.023 520.104 417.078 517.889 418.493C515.673 419.909 513.162 420.616 510.358 420.616C508.312 420.616 506.615 420.282 505.267 419.612C503.919 418.942 502.834 418.136 502.013 417.192C501.207 416.233 500.58 415.328 500.13 414.475H499.782V433.149H491.367ZM499.619 402.468C499.619 404.735 499.944 406.721 500.595 408.426C501.262 410.13 502.214 411.462 503.454 412.421C504.709 413.364 506.228 413.836 508.01 413.836C509.869 413.836 511.427 413.349 512.682 412.375C513.937 411.386 514.882 410.039 515.518 408.335C516.169 406.615 516.494 404.659 516.494 402.468C516.494 400.291 516.176 398.358 515.541 396.669C514.906 394.98 513.96 393.656 512.705 392.697C511.45 391.738 509.885 391.259 508.01 391.259C506.212 391.259 504.686 391.723 503.431 392.651C502.176 393.58 501.223 394.881 500.572 396.555C499.937 398.229 499.619 400.2 499.619 402.468Z" fill="white"/>
<path d="M547.85 420.685C544.363 420.685 541.342 419.931 538.785 418.425C536.228 416.918 534.244 414.81 532.834 412.101C531.44 409.392 530.742 406.227 530.742 402.604C530.742 398.982 531.44 395.809 532.834 393.085C534.244 390.361 536.228 388.245 538.785 386.739C541.342 385.232 544.363 384.478 547.85 384.478C551.336 384.478 554.358 385.232 556.915 386.739C559.472 388.245 561.447 390.361 562.842 393.085C564.252 395.809 564.957 398.982 564.957 402.604C564.957 406.227 564.252 409.392 562.842 412.101C561.447 414.81 559.472 416.918 556.915 418.425C554.358 419.931 551.336 420.685 547.85 420.685ZM547.896 414.065C549.787 414.065 551.367 413.555 552.638 412.535C553.909 411.5 554.854 410.115 555.474 408.38C556.109 406.645 556.427 404.712 556.427 402.582C556.427 400.436 556.109 398.495 555.474 396.76C554.854 395.01 553.909 393.618 552.638 392.583C551.367 391.548 549.787 391.03 547.896 391.03C545.959 391.03 544.348 391.548 543.062 392.583C541.791 393.618 540.838 395.01 540.203 396.76C539.583 398.495 539.273 400.436 539.273 402.582C539.273 404.712 539.583 406.645 540.203 408.38C540.838 410.115 541.791 411.5 543.062 412.535C544.348 413.555 545.959 414.065 547.896 414.065Z" fill="white"/>
<path d="M580.513 399.454V420H572.099V384.935H580.141V390.893H580.56C581.381 388.93 582.69 387.37 584.488 386.213C586.301 385.057 588.54 384.478 591.205 384.478C593.669 384.478 595.815 384.996 597.644 386.031C599.488 387.066 600.914 388.565 601.921 390.528C602.943 392.491 603.447 394.873 603.432 397.673V420H595.017V398.952C595.017 396.608 594.397 394.774 593.158 393.45C591.934 392.126 590.237 391.464 588.067 391.464C586.595 391.464 585.286 391.784 584.139 392.423C583.008 393.047 582.117 393.952 581.466 395.139C580.831 396.327 580.513 397.765 580.513 399.454Z" fill="white"/>
<path d="M627.791 420.685C624.212 420.685 621.12 419.954 618.517 418.493C615.929 417.017 613.938 414.932 612.543 412.238C611.149 409.529 610.451 406.341 610.451 402.673C610.451 399.066 611.149 395.9 612.543 393.176C613.953 390.437 615.921 388.306 618.447 386.784C620.973 385.247 623.94 384.478 627.349 384.478C629.55 384.478 631.626 384.829 633.579 385.529C635.547 386.213 637.282 387.279 638.785 388.725C640.304 390.17 641.497 392.012 642.365 394.249C643.233 396.471 643.667 399.119 643.667 402.194V404.728H614.403V399.157H635.601C635.585 397.575 635.237 396.167 634.555 394.934C633.873 393.686 632.92 392.704 631.696 391.989C630.487 391.274 629.077 390.916 627.466 390.916C625.746 390.916 624.235 391.327 622.933 392.149C621.631 392.956 620.617 394.021 619.888 395.345C619.175 396.654 618.811 398.092 618.796 399.66V404.522C618.796 406.561 619.175 408.312 619.935 409.773C620.694 411.219 621.755 412.33 623.119 413.106C624.483 413.867 626.079 414.247 627.907 414.247C629.131 414.247 630.239 414.08 631.231 413.745C632.223 413.395 633.083 412.885 633.811 412.215C634.54 411.546 635.09 410.716 635.462 409.727L643.318 410.595C642.822 412.634 641.877 414.415 640.482 415.936C639.103 417.443 637.337 418.615 635.183 419.452C633.029 420.274 630.565 420.685 627.791 420.685Z" fill="white"/>
<path d="M659.199 399.454V420H650.785V384.935H658.827V390.893H659.246C660.067 388.93 661.376 387.37 663.174 386.213C664.987 385.057 667.226 384.478 669.891 384.478C672.355 384.478 674.501 384.996 676.33 386.031C678.174 387.066 679.6 388.565 680.607 390.528C681.63 392.491 682.133 394.873 682.118 397.673V420H673.703V398.952C673.703 396.608 673.084 394.774 671.844 393.45C670.62 392.126 668.923 391.464 666.753 391.464C665.281 391.464 663.972 391.784 662.825 392.423C661.694 393.047 660.803 393.952 660.152 395.139C659.517 396.327 659.199 397.765 659.199 399.454Z" fill="white"/>
<path d="M708.499 384.935V391.327H687.975V384.935H708.499ZM693.042 376.534H701.456V409.453C701.456 410.564 701.627 411.416 701.968 412.01C702.324 412.588 702.789 412.984 703.363 413.197C703.936 413.41 704.571 413.517 705.268 413.517C705.795 413.517 706.276 413.479 706.71 413.402C707.159 413.326 707.5 413.258 707.732 413.197L709.15 419.658C708.701 419.81 708.058 419.977 707.221 420.16C706.4 420.342 705.392 420.449 704.199 420.479C702.092 420.54 700.194 420.228 698.505 419.543C696.816 418.843 695.475 417.763 694.483 416.302C693.507 414.841 693.027 413.014 693.042 410.823V376.534Z" fill="white"/>
<path d="M743.243 394.204L735.573 395.025C735.356 394.264 734.976 393.549 734.434 392.879C733.907 392.21 733.194 391.67 732.295 391.259C731.396 390.848 730.296 390.642 728.995 390.642C727.244 390.642 725.771 391.015 724.578 391.761C723.401 392.507 722.819 393.473 722.835 394.66C722.819 395.68 723.199 396.509 723.974 397.148C724.764 397.788 726.066 398.313 727.879 398.724L733.969 400.002C737.347 400.717 739.857 401.851 741.5 403.404C743.158 404.956 743.995 406.988 744.01 409.499C743.995 411.706 743.336 413.654 742.034 415.343C740.748 417.017 738.958 418.326 736.665 419.269C734.372 420.213 731.737 420.685 728.762 420.685C724.392 420.685 720.875 419.787 718.209 417.991C715.544 416.18 713.956 413.661 713.445 410.435L721.65 409.659C722.021 411.241 722.812 412.436 724.02 413.243C725.229 414.049 726.802 414.453 728.739 414.453C730.738 414.453 732.342 414.049 733.55 413.243C734.775 412.436 735.387 411.439 735.387 410.252C735.387 409.248 734.992 408.418 734.201 407.764C733.426 407.109 732.218 406.607 730.575 406.257L724.485 405.002C721.061 404.301 718.527 403.122 716.885 401.463C715.242 399.789 714.429 397.673 714.444 395.117C714.429 392.956 715.025 391.084 716.234 389.501C717.458 387.903 719.155 386.67 721.324 385.803C723.509 384.92 726.027 384.478 728.878 384.478C733.062 384.478 736.355 385.354 738.757 387.104C741.174 388.854 742.67 391.221 743.243 394.204Z" fill="white"/>
<path d="M767.184 433.149V384.935H775.459V390.734H775.947C776.381 389.881 776.993 388.976 777.783 388.017C778.574 387.043 779.643 386.213 780.991 385.529C782.339 384.829 784.059 384.478 786.151 384.478C788.909 384.478 791.396 385.171 793.612 386.556C795.844 387.926 797.61 389.957 798.912 392.651C800.229 395.33 800.888 398.617 800.888 402.513C800.888 406.364 800.245 409.636 798.958 412.33C797.672 415.023 795.921 417.078 793.705 418.493C791.489 419.909 788.979 420.616 786.174 420.616C784.129 420.616 782.432 420.282 781.084 419.612C779.736 418.942 778.651 418.136 777.83 417.192C777.024 416.233 776.396 415.328 775.947 414.475H775.598V433.149H767.184ZM775.436 402.468C775.436 404.735 775.761 406.721 776.412 408.426C777.078 410.13 778.031 411.462 779.271 412.421C780.526 413.364 782.045 413.836 783.827 413.836C785.686 413.836 787.244 413.349 788.499 412.375C789.754 411.386 790.699 410.039 791.334 408.335C791.985 406.615 792.311 404.659 792.311 402.468C792.311 400.291 791.993 398.358 791.358 396.669C790.722 394.98 789.777 393.656 788.522 392.697C787.267 391.738 785.702 391.259 783.827 391.259C782.029 391.259 780.503 391.723 779.248 392.651C777.993 393.58 777.04 394.881 776.389 396.555C775.753 398.229 775.436 400.2 775.436 402.468Z" fill="white"/>
<path d="M816.508 373.247V420H808.093V373.247H816.508Z" fill="white"/>
<path d="M835.434 420.708C833.171 420.708 831.134 420.312 829.321 419.521C827.523 418.714 826.097 417.527 825.044 415.959C824.006 414.392 823.486 412.459 823.486 410.161C823.486 408.182 823.858 406.546 824.602 405.253C825.346 403.959 826.361 402.924 827.647 402.148C828.933 401.372 830.382 400.786 831.994 400.39C833.621 399.979 835.302 399.682 837.038 399.5C839.13 399.287 840.826 399.096 842.128 398.929C843.43 398.746 844.375 398.473 844.964 398.107C845.568 397.727 845.87 397.141 845.87 396.349V396.212C845.87 394.493 845.351 393.161 844.313 392.217C843.275 391.274 841.779 390.802 839.827 390.802C837.766 390.802 836.131 391.243 834.922 392.126C833.729 393.009 832.923 394.051 832.505 395.254L824.649 394.158C825.268 392.027 826.291 390.247 827.717 388.816C829.142 387.37 830.886 386.29 832.947 385.574C835.008 384.844 837.286 384.478 839.78 384.478C841.5 384.478 843.213 384.676 844.917 385.072C846.622 385.468 848.179 386.122 849.589 387.035C850.999 387.933 852.131 389.158 852.983 390.711C853.851 392.263 854.285 394.204 854.285 396.532V420H846.196V415.183H845.917C845.405 416.157 844.685 417.07 843.755 417.923C842.841 418.76 841.686 419.437 840.292 419.954C838.913 420.457 837.293 420.708 835.434 420.708ZM837.619 414.635C839.308 414.635 840.772 414.308 842.012 413.654C843.251 412.984 844.204 412.101 844.871 411.005C845.553 409.91 845.893 408.715 845.893 407.421V403.289C845.63 403.502 845.181 403.7 844.545 403.883C843.926 404.066 843.228 404.225 842.453 404.362C841.679 404.499 840.912 404.621 840.152 404.728C839.393 404.834 838.734 404.925 838.177 405.002C836.921 405.169 835.798 405.443 834.806 405.823C833.814 406.204 833.032 406.736 832.459 407.421C831.885 408.091 831.599 408.959 831.599 410.024C831.599 411.546 832.164 412.695 833.295 413.471C834.427 414.247 835.868 414.635 837.619 414.635Z" fill="white"/>
<path d="M866.697 433.149C865.55 433.149 864.489 433.058 863.512 432.875C862.552 432.708 861.785 432.51 861.211 432.282L863.164 425.844C864.388 426.194 865.48 426.362 866.441 426.346C867.402 426.331 868.246 426.034 868.975 425.456C869.718 424.893 870.346 423.949 870.857 422.625L871.578 420.731L858.631 384.935H867.557L875.785 411.416H876.157L884.408 384.935H893.357L879.062 424.246C878.396 426.103 877.513 427.693 876.413 429.017C875.312 430.357 873.964 431.376 872.368 432.076C870.788 432.792 868.897 433.149 866.697 433.149Z" fill="white"/>
<path d="M913.492 433.88C910.471 433.88 907.875 433.477 905.706 432.67C903.536 431.879 901.793 430.813 900.476 429.474C899.159 428.135 898.244 426.651 897.733 425.022L905.31 423.219C905.651 423.904 906.147 424.581 906.798 425.251C907.449 425.935 908.324 426.499 909.425 426.94C910.54 427.396 911.943 427.625 913.632 427.625C916.018 427.625 917.994 427.054 919.559 425.913C921.124 424.786 921.907 422.93 921.907 420.342V413.699H921.488C921.054 414.552 920.419 415.427 919.582 416.325C918.761 417.222 917.668 417.976 916.305 418.585C914.957 419.193 913.26 419.498 911.214 419.498C908.472 419.498 905.985 418.866 903.753 417.603C901.537 416.325 899.771 414.422 898.454 411.896C897.152 409.354 896.501 406.173 896.501 402.353C896.501 398.503 897.152 395.254 898.454 392.606C899.771 389.942 901.545 387.926 903.776 386.556C906.008 385.171 908.495 384.478 911.238 384.478C913.33 384.478 915.05 384.829 916.398 385.529C917.761 386.213 918.846 387.043 919.652 388.017C920.458 388.976 921.07 389.881 921.488 390.734H921.953V384.935H930.251V420.571C930.251 423.569 929.523 426.05 928.066 428.013C926.61 429.976 924.618 431.445 922.092 432.419C919.567 433.393 916.7 433.88 913.492 433.88ZM913.562 413.014C915.344 413.014 916.863 412.588 918.118 411.736C919.373 410.884 920.326 409.659 920.977 408.061C921.628 406.463 921.953 404.545 921.953 402.308C921.953 400.101 921.628 398.168 920.977 396.509C920.341 394.85 919.396 393.564 918.141 392.651C916.901 391.723 915.375 391.259 913.562 391.259C911.687 391.259 910.122 391.738 908.867 392.697C907.612 393.656 906.666 394.972 906.031 396.646C905.396 398.305 905.078 400.192 905.078 402.308C905.078 404.454 905.396 406.333 906.031 407.946C906.682 409.544 907.635 410.792 908.89 411.69C910.161 412.573 911.718 413.014 913.562 413.014Z" fill="white"/>
<path d="M938.875 420V384.935H947.033V390.779H947.405C948.056 388.755 949.171 387.195 950.752 386.099C952.348 384.988 954.169 384.433 956.214 384.433C956.679 384.433 957.198 384.456 957.772 384.501C958.361 384.532 958.849 384.585 959.236 384.661V392.263C958.88 392.141 958.314 392.035 957.539 391.943C956.78 391.837 956.044 391.784 955.331 391.784C953.797 391.784 952.418 392.111 951.194 392.765C949.985 393.405 949.032 394.295 948.335 395.436C947.637 396.578 947.289 397.894 947.289 399.386V420H938.875Z" fill="white"/>
<path d="M978.929 420.685C975.443 420.685 972.421 419.931 969.864 418.425C967.307 416.918 965.324 414.81 963.914 412.101C962.519 409.392 961.822 406.227 961.822 402.604C961.822 398.982 962.519 395.809 963.914 393.085C965.324 390.361 967.307 388.245 969.864 386.739C972.421 385.232 975.443 384.478 978.929 384.478C982.416 384.478 985.438 385.232 987.994 386.739C990.551 388.245 992.527 390.361 993.922 393.085C995.332 395.809 996.037 398.982 996.037 402.604C996.037 406.227 995.332 409.392 993.922 412.101C992.527 414.81 990.551 416.918 987.994 418.425C985.438 419.931 982.416 420.685 978.929 420.685ZM978.976 414.065C980.866 414.065 982.447 413.555 983.718 412.535C984.988 411.5 985.934 410.115 986.553 408.38C987.189 406.645 987.506 404.712 987.506 402.582C987.506 400.436 987.189 398.495 986.553 396.76C985.934 395.01 984.988 393.618 983.718 392.583C982.447 391.548 980.866 391.03 978.976 391.03C977.039 391.03 975.427 391.548 974.141 392.583C972.871 393.618 971.918 395.01 971.282 396.76C970.662 398.495 970.352 400.436 970.352 402.582C970.352 404.712 970.662 406.645 971.282 408.38C971.918 410.115 972.871 411.5 974.141 412.535C975.427 413.555 977.039 414.065 978.976 414.065Z" fill="white"/>
<path d="M1025.93 405.253V384.935H1034.35V420H1026.19V413.768H1025.82C1025.01 415.731 1023.69 417.337 1021.84 418.585C1020.01 419.833 1017.76 420.457 1015.08 420.457C1012.74 420.457 1010.67 419.947 1008.87 418.927C1007.09 417.892 1005.7 416.393 1004.69 414.43C1003.68 412.451 1003.18 410.062 1003.18 407.262V384.935H1011.59V405.983C1011.59 408.205 1012.21 409.971 1013.45 411.279C1014.69 412.588 1016.32 413.243 1018.33 413.243C1019.57 413.243 1020.77 412.946 1021.94 412.352C1023.1 411.759 1024.05 410.876 1024.8 409.704C1025.55 408.517 1025.93 407.033 1025.93 405.253Z" fill="white"/>
<path d="M1051.42 399.454V420H1043V384.935H1051.04V390.893H1051.46C1052.28 388.93 1053.59 387.37 1055.39 386.213C1057.2 385.057 1059.44 384.478 1062.11 384.478C1064.57 384.478 1066.72 384.996 1068.55 386.031C1070.39 387.066 1071.82 388.565 1072.82 390.528C1073.85 392.491 1074.35 394.873 1074.33 397.673V420H1065.92V398.952C1065.92 396.608 1065.3 394.774 1064.06 393.45C1062.84 392.126 1061.14 391.464 1058.97 391.464C1057.5 391.464 1056.19 391.784 1055.04 392.423C1053.91 393.047 1053.02 393.952 1052.37 395.139C1051.73 396.327 1051.42 397.765 1051.42 399.454Z" fill="white"/>
<path d="M1096.14 420.616C1093.33 420.616 1090.82 419.909 1088.61 418.493C1086.39 417.078 1084.64 415.023 1083.35 412.33C1082.07 409.636 1081.42 406.364 1081.42 402.513C1081.42 398.617 1082.07 395.33 1083.38 392.651C1084.69 389.957 1086.47 387.926 1088.7 386.556C1090.93 385.171 1093.42 384.478 1096.16 384.478C1098.25 384.478 1099.97 384.829 1101.32 385.529C1102.67 386.213 1103.74 387.043 1104.53 388.017C1105.32 388.976 1105.93 389.881 1106.36 390.734H1106.71V373.247H1115.15V420H1106.87V414.475H1106.36C1105.93 415.328 1105.3 416.233 1104.48 417.192C1103.66 418.136 1102.57 418.942 1101.23 419.612C1099.88 420.282 1098.18 420.616 1096.14 420.616ZM1098.48 413.836C1100.27 413.836 1101.78 413.364 1103.04 412.421C1104.29 411.462 1105.25 410.13 1105.9 408.426C1106.55 406.721 1106.87 404.735 1106.87 402.468C1106.87 400.2 1106.55 398.229 1105.9 396.555C1105.26 394.881 1104.32 393.58 1103.06 392.651C1101.82 391.723 1100.3 391.259 1098.48 391.259C1096.61 391.259 1095.04 391.738 1093.79 392.697C1092.53 393.656 1091.59 394.98 1090.95 396.669C1090.32 398.358 1090 400.291 1090 402.468C1090 404.659 1090.32 406.615 1090.95 408.335C1091.6 410.039 1092.56 411.386 1093.81 412.375C1095.08 413.349 1096.64 413.836 1098.48 413.836Z" fill="white"/>
</svg>
